<svg xmlns="http://www.w3.org/2000/svg" width="165.339" height="42" viewBox="0 0 175.339 52">
                    <g id="Group_176" data-name="Group 176" transform="translate(2233.144 -8.216)">
                      <path id="Path_27" data-name="Path 27" d="M-1870.831,146.492a4.529,4.529,0,0,1-4.516,4.516h-4.967a4.529,4.529,0,0,1-4.516-4.516V123.914a4.529,4.529,0,0,1,4.516-4.516h4.967a4.529,4.529,0,0,1,4.516,4.516v4.515h-4.516v-3.838a1.179,1.179,0,0,0-1.129-1.129h-2.71a1.179,1.179,0,0,0-1.129,1.129v21.224a1.179,1.179,0,0,0,1.129,1.129h2.71a1.179,1.179,0,0,0,1.129-1.129v-3.838h4.516Z" transform="translate(-286.695 -91.815)" fill="#fff"/>
                      <path id="Path_28" data-name="Path 28" d="M-1787.954,151.008h-4.7l5.6-31.61h4.968l5.6,31.61h-4.7l-.722-4.967h-5.374Zm3.884-20.321-.362-4.425h-.271l-.361,4.425-1.626,11.289h4.2Z" transform="translate(-362.578 -91.815)" fill="#fff"/>
                      <path id="Path_29" data-name="Path 29" d="M-1676.391,135.112l-1.626-7.677h-.271l.361,7.09v16.482h-4.109V119.4h5.735l3.658,14.947.677,4.651h.451l.678-4.651,3.658-14.947h5.735v31.61h-4.109V134.525l.361-7.09h-.271l-1.626,7.677-2.8,11.38h-3.7Z" transform="translate(-453.657 -91.815)" fill="#fff"/>
                      <path id="Path_30" data-name="Path 30" d="M-1519.538,146.492a4.529,4.529,0,0,1-4.516,4.516h-4.967a4.529,4.529,0,0,1-4.516-4.516V119.4h4.516v26.417a1.179,1.179,0,0,0,1.129,1.129h2.709a1.179,1.179,0,0,0,1.129-1.129V119.4h4.516Z" transform="translate(-575.841 -91.815)" fill="#ff0001"/>
                      <path id="Path_31" data-name="Path 31" d="M-1407.912,132.268a4.529,4.529,0,0,1-4.516,4.516h-4.967v14.224h-4.516V119.4h9.483a4.529,4.529,0,0,1,4.516,4.516Zm-4.516-.677v-7a1.179,1.179,0,0,0-1.129-1.129h-3.838v9.257h3.838a1.179,1.179,0,0,0,1.129-1.129" transform="translate(-667.91 -91.815)" fill="#ff0001"/>
                      <path id="Path_32" data-name="Path 32" d="M-1307.147,146.492a4.529,4.529,0,0,1-4.516,4.516h-4.967a4.529,4.529,0,0,1-4.516-4.516V123.914a4.529,4.529,0,0,1,4.516-4.516h4.967a4.529,4.529,0,0,1,4.516,4.516v4.515h-4.516v-3.838a1.179,1.179,0,0,0-1.129-1.129h-2.709a1.179,1.179,0,0,0-1.129,1.129v21.224a1.179,1.179,0,0,0,1.129,1.129h2.709a1.179,1.179,0,0,0,1.129-1.129v-3.838h4.516Z" transform="translate(-750.658 -91.815)" fill="#ff0001"/>
                      <path id="Path_33" data-name="Path 33" d="M-2066.471,15.735l24.455,28.657,14.848-36.177-18.779,11.171Z" transform="translate(-137.245)" fill="#ff0001"/>
                      <path id="Path_34" data-name="Path 34" d="M-2233.144,132.322l30.093-12.3-2.168,32.521-11.031-13.928Z" transform="translate(0 -92.327)" fill="#ff0001"/>
                      <path id="Path_35" data-name="Path 35" d="M-2021.773,147.512l-27.286-32.522-1.592,26.672Z" transform="translate(-150.243 -88.195)" fill="#ff0001"/>
                    </g>
                  </svg>