<svg xmlns="http://www.w3.org/2000/svg" viewBox="0 0 412.81 150.41"><defs><style>.cls-1{fill:#fff;}</style></defs><g id="Capa_2" data-name="Capa 2"><g id="Capa_1-2" data-name="Capa 1"><path class="cls-1" d="M0,98.93V59H20.59a30,30,0,0,1,8.75,1,9.39,9.39,0,0,1,4.89,3.64,11.31,11.31,0,0,1-3.47,16.14,15.23,15.23,0,0,1-4.34,1.58,12.5,12.5,0,0,1,3.22,1.47,12.77,12.77,0,0,1,2,2.1,15.54,15.54,0,0,1,1.73,2.49l6,11.58h-14L18.76,86.72a9.34,9.34,0,0,0-2.23-3.09,5.24,5.24,0,0,0-3-.92H12.41V98.93ZM12.41,75.15h5.21a18.85,18.85,0,0,0,3.27-.54,3.28,3.28,0,0,0,2-1.26,4.05,4.05,0,0,0-.44-5.29c-.82-.69-2.36-1-4.61-1H12.41Z"/><path class="cls-1" d="M44.82,59H77.93v8.54H57.2v6.35H76.43V82H57.2v7.88H78.53v9.05H44.82Z"/><path class="cls-1" d="M86.77,59H109.9q5.77,0,8.88,2.87a9.26,9.26,0,0,1,3.09,7.09A9,9,0,0,1,119.66,75a9.77,9.77,0,0,1-4.31,2.67,11.19,11.19,0,0,1,6.34,3.56,9.76,9.76,0,0,1,2,6.34,10.93,10.93,0,0,1-1.45,5.59,10.52,10.52,0,0,1-4,3.93,13,13,0,0,1-4.69,1.31,54.51,54.51,0,0,1-5.53.54H86.77ZM99.23,74.63h5.38c1.92,0,3.27-.33,4-1a3.65,3.65,0,0,0,1.13-2.88A3.45,3.45,0,0,0,108.63,68a6.1,6.1,0,0,0-3.94-1H99.23Zm0,15.71h6.3c2.13,0,3.63-.37,4.5-1.13a3.79,3.79,0,0,0,1.31-3,3.53,3.53,0,0,0-1.29-2.85c-.87-.72-2.38-1.08-4.54-1.08H99.23Z"/><path class="cls-1" d="M131.72,59h33.11v8.54H144.11v6.35h19.22V82H144.11v7.88h21.32v9.05H131.72Z"/><path class="cls-1" d="M173.65,59H186V89.09h19.28v9.84H173.65Z"/><path class="cls-1" d="M210.31,85.71,222.07,85a8.92,8.92,0,0,0,1.55,4.36,6.54,6.54,0,0,0,5.46,2.43,6,6,0,0,0,4.07-1.24,3.72,3.72,0,0,0,1.44-2.88,3.68,3.68,0,0,0-1.37-2.78q-1.36-1.23-6.32-2.32-8.13-1.83-11.6-4.85A9.79,9.79,0,0,1,211.81,70a10.48,10.48,0,0,1,1.79-5.82A11.79,11.79,0,0,1,219,59.84a25,25,0,0,1,9.83-1.57q7.66,0,11.69,2.85t4.79,9.07l-11.65.68a5.43,5.43,0,0,0-6-5.15,5,5,0,0,0-3.25.91,2.79,2.79,0,0,0-1.09,2.22,2.23,2.23,0,0,0,.9,1.72c.58.53,2,1,4.15,1.47q8.1,1.75,11.6,3.53A12.19,12.19,0,0,1,245,80a11.24,11.24,0,0,1,1.6,5.91,12.69,12.69,0,0,1-2.13,7.1,13.34,13.34,0,0,1-6,4.92,23.94,23.94,0,0,1-9.62,1.68q-10.2,0-14.13-3.93A15.52,15.52,0,0,1,210.31,85.71Z"/><polygon class="cls-1" points="341.38 80.87 344.39 63.88 330.14 80.87 341.38 80.87"/><path class="cls-1" d="M337.61,0a75.21,75.21,0,1,0,75.2,75.2A75.2,75.2,0,0,0,337.61,0ZM312.75,98.8H279.17l1.47-8.5,2.61-1.87q7.29-5.22,11.64-8.63a56.92,56.92,0,0,0,7.53-7A14.18,14.18,0,0,0,306.13,66a8.53,8.53,0,0,0,.2-1.74,3.92,3.92,0,0,0-1-2.94,4.31,4.31,0,0,0-3.11-1q-5.15,0-6.55,7.29H284.52q1.74-8.43,7.26-12.68a20.22,20.22,0,0,1,12.68-4.25q6.94,0,10.33,3.15a10.81,10.81,0,0,1,3.38,8.29A15,15,0,0,1,317.9,65a23.84,23.84,0,0,1-7.06,12.71A99.36,99.36,0,0,1,296.36,89.5h18.06Zm43-8h-5.48l-1.54,8.7H337.23l1.61-8.7H316.36L318,81.54,344.39,51.3h12.85L352,80.87h5.48Zm14.65,8.7h-12l24.68-38.53H362.39l1.74-9.7h32.24l-1.47,8.43Z"/></g></g></svg>